<svg xmlns="http://www.w3.org/2000/svg" width="204" height="59" fill="none" viewBox="0 0 204 59">
  <path fill="#fff" d="M4.992 47V12.296h9.456c3.424 0 6.336.528 8.736 1.584 2.432 1.056 4.384 2.448 5.856 4.176a16.544 16.544 0 0 1 3.216 5.76c.704 2.08 1.056 4.16 1.056 6.24 0 2.624-.464 4.976-1.392 7.056-.896 2.08-2.144 3.856-3.744 5.328a17.18 17.18 0 0 1-5.52 3.408C20.608 46.616 18.432 47 16.128 47H4.992Zm4.656-4.464h5.568c1.92 0 3.68-.288 5.28-.864 1.632-.576 3.04-1.408 4.224-2.496 1.216-1.088 2.16-2.416 2.832-3.984.672-1.6 1.008-3.408 1.008-5.424 0-2.144-.352-4.016-1.056-5.616-.704-1.632-1.664-2.992-2.88-4.08a12.283 12.283 0 0 0-4.128-2.448 13.693 13.693 0 0 0-4.848-.864h-6v25.776Zm39.597 4.944c-2.272 0-4.224-.448-5.856-1.344-1.632-.928-2.896-2.176-3.792-3.744-.864-1.6-1.296-3.424-1.296-5.472 0-1.952.496-3.728 1.488-5.328s2.32-2.88 3.984-3.84c1.664-.96 3.52-1.44 5.568-1.44 2.624 0 4.8.768 6.528 2.304 1.728 1.536 2.896 3.648 3.504 6.336l-16.368 5.76-1.056-2.64 13.44-4.896-.96.624c-.384-1.056-1.024-1.968-1.92-2.736-.896-.8-2.064-1.2-3.504-1.2-1.216 0-2.304.304-3.264.912a6.043 6.043 0 0 0-2.256 2.4c-.544 1.024-.816 2.192-.816 3.504 0 1.376.288 2.592.864 3.648a6.641 6.641 0 0 0 2.352 2.448c1.024.576 2.176.864 3.456.864a6.66 6.66 0 0 0 2.496-.48c.832-.32 1.6-.736 2.304-1.248l2.064 3.312a13.651 13.651 0 0 1-3.36 1.632c-1.216.416-2.416.624-3.6.624Zm23.977 0c-1.856 0-3.552-.4-5.088-1.2-1.504-.8-2.704-1.968-3.6-3.504-.864-1.568-1.296-3.472-1.296-5.712 0-2.208.464-4.112 1.392-5.712.928-1.632 2.16-2.88 3.696-3.744 1.568-.864 3.28-1.296 5.136-1.296 1.856 0 3.424.432 4.704 1.296 1.28.832 2.256 1.824 2.928 2.976l-.288.768.432-4.224h4.128V47h-4.464v-5.184l.48 1.152c-.128.32-.416.736-.864 1.248-.416.48-.992.976-1.728 1.488-.704.512-1.52.944-2.448 1.296-.928.32-1.968.48-3.12.48Zm1.2-3.696c1.12 0 2.128-.208 3.024-.624a5.916 5.916 0 0 0 2.208-1.728c.608-.768 1.024-1.68 1.248-2.736v-3.888a5.916 5.916 0 0 0-1.344-2.496 6.309 6.309 0 0 0-2.304-1.68c-.896-.416-1.888-.624-2.976-.624a6.384 6.384 0 0 0-3.264.864 6.637 6.637 0 0 0-2.4 2.4c-.576 1.024-.864 2.224-.864 3.6 0 1.28.304 2.448.912 3.504a6.786 6.786 0 0 0 2.448 2.496 6.375 6.375 0 0 0 3.312.912Zm18.67-33.936h4.463V47h-4.464V9.848Zm21.403 37.632c-2.272 0-4.224-.448-5.856-1.344-1.632-.928-2.896-2.176-3.792-3.744-.864-1.6-1.296-3.424-1.296-5.472 0-1.952.496-3.728 1.488-5.328s2.32-2.88 3.984-3.84c1.664-.96 3.52-1.44 5.568-1.44 2.624 0 4.8.768 6.528 2.304 1.728 1.536 2.896 3.648 3.504 6.336l-16.368 5.76-1.056-2.64 13.44-4.896-.96.624c-.384-1.056-1.024-1.968-1.92-2.736-.896-.8-2.064-1.2-3.504-1.2-1.216 0-2.304.304-3.264.912a6.043 6.043 0 0 0-2.256 2.4c-.544 1.024-.816 2.192-.816 3.504 0 1.376.288 2.592.864 3.648a6.641 6.641 0 0 0 2.352 2.448c1.024.576 2.176.864 3.456.864a6.66 6.66 0 0 0 2.496-.48c.832-.32 1.6-.736 2.304-1.248l2.064 3.312a13.651 13.651 0 0 1-3.36 1.632c-1.216.416-2.416.624-3.6.624ZM134.2 27.128l.432 5.76-.24-.768a8.224 8.224 0 0 1 2.208-3.072c.992-.864 2.016-1.52 3.072-1.968 1.088-.48 2.032-.72 2.832-.72l-.24 4.416c-1.504-.096-2.832.192-3.984.864a7.722 7.722 0 0 0-2.688 2.688 7.139 7.139 0 0 0-.96 3.6V47h-4.416V27.128h3.984ZM180.904 6.04A3.33 3.33 0 0 0 178.5 5a3.33 3.33 0 0 0-2.404 1.04l-22.597 23.61a1.84 1.84 0 0 0 0 2.515c.319.334.752.522 1.203.522.224 0 .445-.046.651-.136.207-.089.394-.22.553-.385l2.196-2.299v18.804c0 1.413.537 2.769 1.493 3.768A4.99 4.99 0 0 0 163.201 54h30.598a4.993 4.993 0 0 0 3.606-1.56 5.454 5.454 0 0 0 1.493-3.769V29.867l2.196 2.299c.32.333.753.52 1.204.52.451 0 .884-.187 1.203-.52.32-.334.499-.786.499-1.258s-.179-.924-.499-1.257l-8.002-8.36V9.593c0-.471-.18-.923-.498-1.256a1.664 1.664 0 0 0-1.202-.52h-3.4c-.451 0-.883.187-1.202.52a1.817 1.817 0 0 0-.498 1.256v4.593l-7.795-8.146Zm14.595 20.275V48.67c0 .471-.18.923-.498 1.256-.319.333-.751.52-1.202.52h-30.598c-.451 0-.883-.187-1.202-.52a1.822 1.822 0 0 1-.498-1.256V26.315L178.5 8.552l16.999 17.763Z"/>
  <g clip-path="url(#a)">
    <path fill="#fff" d="M168.568 26.59a4.65 4.65 0 0 1 1.672-2.067 4.422 4.422 0 0 1 2.496-.773h11.531c1.813 0 3.451 1.117 4.166 2.84l1.435 3.466c.136.328.381.598.689.757a3.38 3.38 0 0 1 1.749 2.366l.607 3.148c.06.303.09.61.089.92v.774a4.713 4.713 0 0 1-1.813 3.744v3.547a.954.954 0 0 1-.265.663.892.892 0 0 1-.641.275h-3.625a.892.892 0 0 1-.641-.275.954.954 0 0 1-.265-.663v-2.508c-2.342.09-4.975.165-7.25.165-2.275 0-4.908-.075-7.25-.165v2.508a.954.954 0 0 1-.266.663.89.89 0 0 1-.64.275h-3.625a.89.89 0 0 1-.641-.275.954.954 0 0 1-.266-.663v-3.547a4.715 4.715 0 0 1-1.812-3.744v-.775c0-.308.03-.616.089-.919l.607-3.15a3.377 3.377 0 0 1 1.747-2.364c.31-.159.555-.428.691-.757l1.435-3.465h-.003Zm4.168-.965c-.532 0-1.053.162-1.497.465a2.79 2.79 0 0 0-1.002 1.241l-1.436 3.463a3.326 3.326 0 0 1-1.546 1.695 1.467 1.467 0 0 0-.509.435 1.52 1.52 0 0 0-.27.623l-.609 3.148a2.833 2.833 0 0 0-.054.551v.775c0 1.492 1.123 2.715 2.552 2.782 2.818.131 6.862.29 10.135.29 3.273 0 7.317-.157 10.136-.29a2.644 2.644 0 0 0 1.815-.862 2.833 2.833 0 0 0 .737-1.92v-.775c0-.185-.019-.369-.055-.551l-.607-3.15a1.517 1.517 0 0 0-.271-.622 1.462 1.462 0 0 0-.508-.434 3.326 3.326 0 0 1-1.546-1.695l-1.436-3.465a2.796 2.796 0 0 0-1.003-1.24 2.656 2.656 0 0 0-1.498-.464h-11.528Z"/>
  </g>
  <defs>
    <clipPath id="a">
      <path fill="#fff" d="M164 20h29v30h-29z"/>
    </clipPath>
  </defs>
</svg>
