<svg width="185" height="38" viewBox="0 0 185 38" fill="none" xmlns="http://www.w3.org/2000/svg">
<g clip-path="url(#clip0_5_62)">
<path d="M7.89219 25.0001V6.90406H7.91619L17.3242 20.2241L16.1242 19.9601L25.4842 6.90406H25.5322V25.0001H22.7482V13.2161L22.9402 14.6561L16.6282 23.5841H16.5802L10.1242 14.6561L10.6042 13.3361V25.0001H7.89219ZM28.9299 19.8161C28.9299 18.7921 29.1699 17.8721 29.6499 17.0561C30.1299 16.2241 30.8019 15.5761 31.6659 15.1121C32.5459 14.6321 33.5379 14.3921 34.6419 14.3921C35.7779 14.3921 36.7619 14.6321 37.5939 15.1121C38.4419 15.5761 39.0979 16.2241 39.5619 17.0561C40.0259 17.8721 40.2579 18.7921 40.2579 19.8161C40.2579 20.8401 40.0259 21.7681 39.5619 22.6001C39.0979 23.4161 38.4419 24.0641 37.5939 24.5441C36.7619 25.0241 35.7699 25.2641 34.6179 25.2641C33.5299 25.2641 32.5539 25.0481 31.6899 24.6161C30.8259 24.1681 30.1459 23.5361 29.6499 22.7201C29.1699 21.9041 28.9299 20.9361 28.9299 19.8161ZM31.6419 19.8401C31.6419 20.4321 31.7699 20.9761 32.0259 21.4721C32.2819 21.9521 32.6339 22.3361 33.0819 22.6241C33.5299 22.9121 34.0259 23.0561 34.5699 23.0561C35.1619 23.0561 35.6739 22.9121 36.1059 22.6241C36.5539 22.3361 36.8979 21.9521 37.1379 21.4721C37.3939 20.9761 37.5219 20.4321 37.5219 19.8401C37.5219 19.2321 37.3939 18.6881 37.1379 18.2081C36.8979 17.7121 36.5539 17.3201 36.1059 17.0321C35.6739 16.7441 35.1619 16.6001 34.5699 16.6001C34.0099 16.6001 33.5059 16.7521 33.0579 17.0561C32.6259 17.3441 32.2819 17.7281 32.0259 18.2081C31.7699 18.6881 31.6419 19.2321 31.6419 19.8401ZM44.0424 10.3841H46.7544V14.8481H49.3944V16.9601H46.7544V25.0001H44.0424V16.9601H42.3144V14.8481H44.0424V10.3841ZM51.1955 19.8161C51.1955 18.7921 51.4355 17.8721 51.9155 17.0561C52.3955 16.2241 53.0675 15.5761 53.9315 15.1121C54.8115 14.6321 55.8035 14.3921 56.9075 14.3921C58.0435 14.3921 59.0275 14.6321 59.8595 15.1121C60.7075 15.5761 61.3635 16.2241 61.8275 17.0561C62.2915 17.8721 62.5235 18.7921 62.5235 19.8161C62.5235 20.8401 62.2915 21.7681 61.8275 22.6001C61.3635 23.4161 60.7075 24.0641 59.8595 24.5441C59.0275 25.0241 58.0355 25.2641 56.8835 25.2641C55.7955 25.2641 54.8195 25.0481 53.9555 24.6161C53.0915 24.1681 52.4115 23.5361 51.9155 22.7201C51.4355 21.9041 51.1955 20.9361 51.1955 19.8161ZM53.9075 19.8401C53.9075 20.4321 54.0355 20.9761 54.2915 21.4721C54.5475 21.9521 54.8995 22.3361 55.3475 22.6241C55.7955 22.9121 56.2915 23.0561 56.8355 23.0561C57.4275 23.0561 57.9395 22.9121 58.3715 22.6241C58.8195 22.3361 59.1635 21.9521 59.4035 21.4721C59.6595 20.9761 59.7875 20.4321 59.7875 19.8401C59.7875 19.2321 59.6595 18.6881 59.4035 18.2081C59.1635 17.7121 58.8195 17.3201 58.3715 17.0321C57.9395 16.7441 57.4275 16.6001 56.8355 16.6001C56.2755 16.6001 55.7715 16.7521 55.3235 17.0561C54.8915 17.3441 54.5475 17.7281 54.2915 18.2081C54.0355 18.6881 53.9075 19.2321 53.9075 19.8401ZM65.9 25.0001V6.90406H65.924L75.332 20.2241L74.132 19.9601L83.492 6.90406H83.54V25.0001H80.756V13.2161L80.948 14.6561L74.636 23.5841H74.588L68.132 14.6561L68.612 13.3361V25.0001H65.9ZM86.9377 19.8161C86.9377 18.7921 87.1777 17.8721 87.6577 17.0561C88.1377 16.2241 88.8097 15.5761 89.6737 15.1121C90.5537 14.6321 91.5457 14.3921 92.6497 14.3921C93.7857 14.3921 94.7697 14.6321 95.6017 15.1121C96.4497 15.5761 97.1057 16.2241 97.5697 17.0561C98.0337 17.8721 98.2657 18.7921 98.2657 19.8161C98.2657 20.8401 98.0337 21.7681 97.5697 22.6001C97.1057 23.4161 96.4497 24.0641 95.6017 24.5441C94.7697 25.0241 93.7777 25.2641 92.6257 25.2641C91.5377 25.2641 90.5617 25.0481 89.6977 24.6161C88.8337 24.1681 88.1537 23.5361 87.6577 22.7201C87.1777 21.9041 86.9377 20.9361 86.9377 19.8161ZM89.6497 19.8401C89.6497 20.4321 89.7777 20.9761 90.0337 21.4721C90.2897 21.9521 90.6417 22.3361 91.0897 22.6241C91.5377 22.9121 92.0337 23.0561 92.5777 23.0561C93.1697 23.0561 93.6817 22.9121 94.1137 22.6241C94.5617 22.3361 94.9057 21.9521 95.1457 21.4721C95.4017 20.9761 95.5297 20.4321 95.5297 19.8401C95.5297 19.2321 95.4017 18.6881 95.1457 18.2081C94.9057 17.7121 94.5617 17.3201 94.1137 17.0321C93.6817 16.7441 93.1697 16.6001 92.5777 16.6001C92.0177 16.6001 91.5137 16.7521 91.0657 17.0561C90.6337 17.3441 90.2897 17.7281 90.0337 18.2081C89.7777 18.6881 89.6497 19.2321 89.6497 19.8401ZM102.05 10.3841H104.762V14.8481H107.402V16.9601H104.762V25.0001H102.05V16.9601H100.322V14.8481H102.05V10.3841ZM109.203 19.8161C109.203 18.7921 109.443 17.8721 109.923 17.0561C110.403 16.2241 111.075 15.5761 111.939 15.1121C112.819 14.6321 113.811 14.3921 114.915 14.3921C116.051 14.3921 117.035 14.6321 117.867 15.1121C118.715 15.5761 119.371 16.2241 119.835 17.0561C120.299 17.8721 120.531 18.7921 120.531 19.8161C120.531 20.8401 120.299 21.7681 119.835 22.6001C119.371 23.4161 118.715 24.0641 117.867 24.5441C117.035 25.0241 116.043 25.2641 114.891 25.2641C113.803 25.2641 112.827 25.0481 111.963 24.6161C111.099 24.1681 110.419 23.5361 109.923 22.7201C109.443 21.9041 109.203 20.9361 109.203 19.8161ZM111.915 19.8401C111.915 20.4321 112.043 20.9761 112.299 21.4721C112.555 21.9521 112.907 22.3361 113.355 22.6241C113.803 22.9121 114.299 23.0561 114.843 23.0561C115.435 23.0561 115.947 22.9121 116.379 22.6241C116.827 22.3361 117.171 21.9521 117.411 21.4721C117.667 20.9761 117.795 20.4321 117.795 19.8401C117.795 19.2321 117.667 18.6881 117.411 18.2081C117.171 17.7121 116.827 17.3201 116.379 17.0321C115.947 16.7441 115.435 16.6001 114.843 16.6001C114.283 16.6001 113.779 16.7521 113.331 17.0561C112.899 17.3441 112.555 17.7281 112.299 18.2081C112.043 18.6881 111.915 19.2321 111.915 19.8401Z" fill="black"/>
<path d="M172.676 7.1399C170.644 7.12877 168.821 8.44467 167.051 9.11561C165.983 6.55135 163.475 4.75006 160.55 4.75006C159.722 4.75006 158.938 4.92076 158.2 5.18647V4.15631C158.2 3.17217 157.411 2.37506 156.437 2.37506H155.262C154.289 2.37506 153.5 3.17217 153.5 4.15631V7.79155C151.004 5.90639 147.716 4.75006 144.1 4.75006C136.313 4.75006 130 10.0671 130 16.6251V34.4376C130 35.0937 130.526 35.6251 131.175 35.6251H135.875C136.524 35.6251 137.05 35.0937 137.05 34.4376V29.1836C139.426 30.2494 142.243 30.8751 145.275 30.8751C148.306 30.8751 151.124 30.2494 153.5 29.1836V34.4376C153.5 35.0937 154.026 35.6251 154.675 35.6251H159.375C160.024 35.6251 160.55 35.0937 160.55 34.4376V21.3751H169.95V23.7501C169.95 24.4062 170.476 24.9376 171.125 24.9376H173.475C174.124 24.9376 174.65 24.4062 174.65 23.7501V21.3751C175.948 21.3751 177 20.3115 177 19.0001V12.1705C177 9.64033 175.179 7.15401 172.676 7.1399ZM162.9 13.0626C162.251 13.0626 161.725 12.5312 161.725 11.8751C161.725 11.219 162.251 10.6876 162.9 10.6876C163.549 10.6876 164.075 11.219 164.075 11.8751C164.075 12.5312 163.549 13.0626 162.9 13.0626Z" fill="black"/>
</g>
<defs>
<clipPath id="clip0_5_62">
<rect width="185" height="38" fill="white"/>
</clipPath>
</defs>
</svg>
